<svg width="40" height="40" viewBox="0 0 40 40" fill="none" xmlns="http://www.w3.org/2000/svg">
<path d="M20 40C31.0457 40 40 31.0457 40 20C40 8.9543 31.0457 0 20 0C8.9543 0 0 8.9543 0 20C0 31.0457 8.9543 40 20 40Z" fill="black"/>
<path fill-rule="evenodd" clip-rule="evenodd" d="M17.7812 29.3538H22.1663V33.7388H17.7812V29.3538ZM17.7812 10H22.1663V14.385H17.7812V10ZM28.115 10H32.5V14.385H28.115V10ZM7.5 10H11.885V14.385H7.5V10ZM22.9475 19.6775H27.3325V24.0625H22.9475V19.6775ZM12.6038 19.6775H16.9887V24.0625H12.6038V19.6775Z" fill="white"/>
</svg>
