<svg width="40" height="40" viewBox="0 0 40 40" fill="none" xmlns="http://www.w3.org/2000/svg">
<path d="M20 40C31.0457 40 40 31.0457 40 20C40 8.9543 31.0457 0 20 0C8.9543 0 0 8.9543 0 20C0 31.0457 8.9543 40 20 40Z" fill="#743AEF"/>
<path d="M7.32327 10.0484C7.55417 9.95069 7.78508 9.99954 7.9698 10.1461L18.3606 18.4006C18.4991 18.4983 18.5915 18.6936 18.5915 18.889V28.3646C18.5915 28.533 18.5282 28.6945 18.4156 28.8136C18.303 28.9326 18.1503 28.9995 17.9911 28.9995C17.8319 28.9995 17.6792 28.9326 17.5666 28.8136C17.454 28.6945 17.3908 28.533 17.3908 28.3646V19.2309L8.20071 11.9044V28.3646C8.20071 28.533 8.13746 28.6945 8.02487 28.8136C7.91228 28.9326 7.75958 28.9995 7.60036 28.9995C7.44113 28.9995 7.28843 28.9326 7.17584 28.8136C7.06325 28.6945 7 28.533 7 28.3646V10.6345C7 10.3903 7.13854 10.1949 7.32327 10.0484Z" fill="white"/>
<path d="M32.6767 10.0485C32.9076 10.195 33 10.3904 33 10.6346V28.3647C33 28.5331 32.9367 28.6946 32.8241 28.8137C32.7116 28.9328 32.5588 28.9997 32.3996 28.9997C32.2404 28.9997 32.0877 28.9328 31.9751 28.8137C31.8625 28.6946 31.7993 28.5331 31.7993 28.3647V11.9045L22.6092 19.231V28.3647C22.6092 28.5331 22.546 28.6946 22.4334 28.8137C22.3208 28.9328 22.1681 28.9997 22.0089 28.9997C21.8496 28.9997 21.6969 28.9328 21.5843 28.8137C21.4718 28.6946 21.4085 28.5331 21.4085 28.3647V18.8891C21.4085 18.6937 21.5009 18.4984 21.6394 18.4007L32.0764 10.1462C32.2149 9.99966 32.492 9.95082 32.6767 10.0485Z" fill="white"/>
</svg>
