<svg width="26" height="26" viewBox="0 0 40 40" fill="none" xmlns="http://www.w3.org/2000/svg">
<path d="M20 40C31.0457 40 40 31.0457 40 20C40 8.9543 31.0457 0 20 0C8.9543 0 0 8.9543 0 20C0 31.0457 8.9543 40 20 40Z" fill="#1AC9F0"/>
<path d="M19.5714 7L14.5714 9.85714V19.1429L19.5714 22L24.5714 19.1429V9.85714L19.5714 7Z" fill="#F7F7F7"/>
<path d="M11 12L6 14.8571V24.1429L11 27L16 24.1429V14.8571L11 12Z" fill="white"/>
<path d="M28.1429 12L23.1429 14.8571V24.1429L28.1429 27L33.1429 24.1429V14.8571L28.1429 12Z" fill="#FBFBFB"/>
<path d="M19.5714 17L14.5714 19.8571V29.1429L19.5714 32L24.5714 29.1429V19.8571L19.5714 17Z" fill="white"/>
</svg>
