<svg width="26" height="40" viewBox="0 0 26 40" fill="none" xmlns="http://www.w3.org/2000/svg">
<g clip-path="url(#clip0)">
<path d="M17.0773 12.3029C17.0773 6.56339 14.3 1.61858 12.1727 -0.000261085C12.1727 -0.000261085 12.025 -0.0885613 12.025 0.146906C11.8477 11.2433 6.20453 14.2749 3.07271 18.3073C-4.10684 27.6671 2.57044 37.91 9.36589 39.7937C13.1773 40.8533 8.47953 37.91 7.88862 31.729C7.17953 24.2234 17.0773 18.5134 17.0773 12.3029Z" fill="#282E5B"/>
<path d="M20.8 16.1001C20.7705 16.0706 20.7114 16.0706 20.6523 16.1001C20.6523 16.1001 20.6523 16.1001 20.6227 16.1295C20.5046 17.5129 18.9682 20.5151 17.0477 23.2524C10.5182 32.5534 14.2409 37.0272 16.3386 39.4408C17.55 40.8536 16.3386 39.4408 19.3818 37.9985C19.6182 37.8808 25.2909 34.8786 25.9114 28.0795C26.5318 21.457 22.3068 17.3068 20.8 16.1001Z" fill="#059BDC"/>
</g>
<defs>
<clipPath id="clip0">
<rect width="26" height="40" fill="white"/>
</clipPath>
</defs>
</svg>
