<svg width="40" height="40" viewBox="0 0 40 40" fill="none" xmlns="http://www.w3.org/2000/svg">
<path d="M20 40C31.0834 40 40 31.0834 40 20C40 8.9166 31.0834 0 20 0C8.9166 0 0 8.9166 0 20C0 31.0834 8.9166 40 20 40Z" fill="#2775CA"/>
<path d="M25.5 23.1666C25.5 20.25 23.75 19.25 20.25 18.8334C17.75 18.5 17.25 17.8334 17.25 16.6666C17.25 15.4998 18.0834 14.75 19.75 14.75C21.25 14.75 22.0834 15.25 22.5 16.5C22.5834 16.75 22.8334 16.9166 23.0834 16.9166H24.4166C24.75 16.9166 25 16.6666 25 16.3334V16.25C24.6666 14.4166 23.1666 13 21.25 12.8334V10.8334C21.25 10.5 21 10.25 20.5834 10.1666H19.3334C19 10.1666 18.75 10.4166 18.6666 10.8334V12.75C16.1666 13.0834 14.5834 14.75 14.5834 16.8334C14.5834 19.5834 16.25 20.6666 19.75 21.0834C22.0834 21.5 22.8334 22 22.8334 23.3334C22.8334 24.6668 21.6666 25.5834 20.0834 25.5834C17.9166 25.5834 17.1666 24.6666 16.9166 23.4166C16.8334 23.0834 16.5834 22.9166 16.3334 22.9166H14.9166C14.5834 22.9166 14.3334 23.1666 14.3334 23.5V23.5834C14.6666 25.6666 16 27.1666 18.75 27.5834V29.5834C18.75 29.9166 19 30.1666 19.4166 30.25H20.6666C21 30.25 21.25 30 21.3334 29.5834V27.5834C23.8334 27.1666 25.5 25.4166 25.5 23.1666Z" fill="white"/>
<path d="M15.75 31.9166C9.25004 29.5834 5.91664 22.3334 8.33344 15.9166C9.58344 12.4166 12.3334 9.74997 15.75 8.49997C16.0834 8.33337 16.25 8.08337 16.25 7.66657V6.49997C16.25 6.16657 16.0834 5.91657 15.75 5.83337C15.6666 5.83337 15.5 5.83337 15.4166 5.91657C7.50004 8.41657 3.16664 16.8334 5.66664 24.75C7.16664 29.4166 10.75 33 15.4166 34.5C15.75 34.6666 16.0834 34.5 16.1666 34.1666C16.25 34.0834 16.25 34 16.25 33.8334V32.6666C16.25 32.4166 16 32.0834 15.75 31.9166ZM24.5834 5.91657C24.25 5.74997 23.9166 5.91657 23.8334 6.24997C23.75 6.33337 23.75 6.41657 23.75 6.58337V7.74997C23.75 8.08337 24 8.41657 24.25 8.58337C30.75 10.9166 34.0834 18.1666 31.6666 24.5834C30.4166 28.0834 27.6666 30.75 24.25 32C23.9166 32.1666 23.75 32.4166 23.75 32.8334V34C23.75 34.3334 23.9166 34.5834 24.25 34.6666C24.3334 34.6666 24.5 34.6666 24.5834 34.5834C32.5 32.0834 36.8334 23.6666 34.3334 15.75C32.8334 11 29.1666 7.41657 24.5834 5.91657Z" fill="white"/>
</svg>
